<?xml version="1.0" encoding="UTF-8"?>
<svg height="16px" viewBox="0 0 16 16" width="16px" xmlns="http://www.w3.org/2000/svg">
    <path d="m 8 0 c -1.105469 0 -2 0.894531 -2 2 s 0.894531 2 2 2 s 2 -0.894531 2 -2 s -0.894531 -2 -2 -2 z m 0 0"/>
    <path d="m 3.464844 4 l -2.296875 3.445312 c -0.304688 0.460938 -0.183594 1.082032 0.277343 1.386719 c 0.460938 0.304688 1.082032 0.183594 1.386719 -0.277343 l 1.703125 -2.554688 h 1.164063 l -0.730469 2.738281 l 0.03125 3.261719 h -2 c -0.550781 0 -1 0.449219 -1 1 s 0.449219 1 1 1 h 3 c 0.550781 0 1 -0.449219 1 -1 v -2.378906 l 3.15625 4.921875 c 0.300781 0.464843 0.921875 0.597656 1.386719 0.300781 c 0.464843 -0.300781 0.597656 -0.921875 0.300781 -1.386719 l -3.761719 -5.855469 l 0.6875 -2.601562 h 0.449219 l 0.78125 3 h 3.78125 c 0.550781 0 1 -0.449219 1 -1 s -0.449219 -1 -1 -1 h -2.21875 l -0.78125 -3 z m 0 0"/>
</svg>
