<?xml version="1.0" encoding="UTF-8"?>
<svg height="128px" viewBox="0 0 128 128" width="128px" xmlns="http://www.w3.org/2000/svg" xmlns:xlink="http://www.w3.org/1999/xlink">
    <filter id="a" height="100%" width="100%" x="0%" y="0%">
        <feColorMatrix color-interpolation-filters="sRGB" values="0 0 0 0 1 0 0 0 0 1 0 0 0 0 1 0 0 0 1 0"/>
    </filter>
    <linearGradient id="b" gradientUnits="userSpaceOnUse" x1="25" x2="104" y1="21" y2="21">
        <stop offset="0" stop-color="#d6d6d6"/>
        <stop offset="0.294966" stop-color="#ffffff"/>
        <stop offset="1" stop-color="#cccccc"/>
    </linearGradient>
    <linearGradient id="c" gradientUnits="userSpaceOnUse" x1="27.6674442634" x2="103.99949031206" y1="112.81481979286" y2="112.81481979286">
        <stop offset="0" stop-color="#c0bfbc"/>
        <stop offset="0.334886" stop-color="#e1e0e0"/>
        <stop offset="1" stop-color="#c0bfbc"/>
    </linearGradient>
    <linearGradient id="d" gradientUnits="userSpaceOnUse" x1="23.39739279866" x2="107.50446087455" y1="68.76200751874" y2="68.76200751874">
        <stop offset="0" stop-color="#deddda"/>
        <stop offset="0.201288" stop-color="#f1f0ef"/>
        <stop offset="0.50322" stop-color="#efeeed"/>
        <stop offset="0.841696" stop-color="#c0beb7"/>
        <stop offset="0.936731" stop-color="#ebebe9"/>
        <stop offset="1" stop-color="#deddda"/>
    </linearGradient>
    <linearGradient id="e" gradientUnits="userSpaceOnUse" x1="60.253614" x2="98.87031023363" y1="69.029369" y2="69.029369">
        <stop offset="0" stop-color="#33d17a"/>
        <stop offset="0.427353" stop-color="#5dd895"/>
        <stop offset="1" stop-color="#28b267"/>
    </linearGradient>
    <linearGradient id="f" gradientTransform="matrix(0.642429 0 0 0.621843 -1762.920044 3749.477539)" gradientUnits="userSpaceOnUse" x1="2764.382568" x2="2921.598389" y1="-5967.717285" y2="-5967.717285">
        <stop offset="0" stop-color="#d7d2ce"/>
        <stop offset="0.179093" stop-color="#ffffff"/>
        <stop offset="0.753728" stop-color="#f4f3f1"/>
        <stop offset="1" stop-color="#c0b9b1"/>
    </linearGradient>
    <clipPath id="g">
        <rect height="128" width="128"/>
    </clipPath>
    <clipPath id="h">
        <rect height="128" width="128"/>
    </clipPath>
    <mask id="i">
        <g filter="url(#a)">
            <g clip-path="url(#h)" filter="url(#a)">
                <g clip-path="url(#g)">
                    <path d="m 79.207031 1.757812 h 11.300781 c 2.109376 0 3.230469 1.777344 3.808594 3.808594 l 1.535156 5.367188 c 0.671876 2.359375 -1.976562 4.425781 -4.425781 4.425781 h -13.136719 c -2.453124 0 -5.097656 -2.066406 -4.425781 -4.425781 l 1.535157 -5.367188 c 0.578124 -2.03125 1.699218 -3.808594 3.808593 -3.808594 z m 0 0" fill="#f3f1ef"/>
                    <path d="m 29.097656 12.496094 h 68.058594 c 2.109375 0 3.445312 1.726562 3.808594 3.808594 l 2.554687 14.753906 c 0.386719 2.21875 -1.8125 4.0625 -4.0625 4.0625 h -72.660156 c -2.253906 0 -4.449219 -1.84375 -4.066406 -4.0625 l 2.558593 -14.753906 c 0.359376 -2.082032 1.699219 -3.808594 3.808594 -3.808594 z m 0 0" fill="url(#b)"/>
                    <path d="m 23.984375 31.878906 h 81.351563 c 2.109374 0 4.007812 1.707032 3.808593 3.808594 l -7.667969 81.125 c -0.164062 1.738281 -1.40625 3.152344 -3.152343 3.152344 h -67.328125 c -1.746094 0 -2.988282 -1.414063 -3.152344 -3.152344 l -7.667969 -81.125 c -0.199219 -2.101562 1.699219 -3.808594 3.808594 -3.808594 z m 0 0" fill="url(#c)"/>
                    <path d="m 23.804688 29.878906 h 81.710937 c 2.109375 0 4.003906 1.707032 3.804687 3.808594 l -7.667968 81.125 c -0.164063 1.738281 -1.40625 3.152344 -3.152344 3.152344 h -67.679688 c -1.746093 0 -2.988281 -1.414063 -3.152343 -3.152344 l -7.667969 -81.125 c -0.199219 -2.101562 1.695312 -3.808594 3.804688 -3.808594 z m 0 0" fill="url(#d)"/>
                    <path d="m 74.667969 12.496094 c 2.109375 0 3.449219 1.730468 3.808593 3.808594 l 2.558594 14.753906 c 0.382813 2.21875 -1.8125 4.0625 -4.066406 4.0625 h 22.488281 c 2.25 0 4.449219 -1.84375 4.0625 -4.0625 l -2.554687 -14.753906 c -0.359375 -2.078126 -1.699219 -3.808594 -3.808594 -3.808594 z m 0 0" fill="#faf9f8" fill-opacity="0.372549"/>
                    <path d="m 61.929688 46.046875 h 34.070312 v 61.378906 c 0 2.527344 -2.046875 4.574219 -4.574219 4.574219 h -34.25 c 2.832031 0 4.753907 -1.875 4.753907 -4.476562 z m 0 0" fill="url(#e)"/>
                    <path d="m 23.808594 29.882812 c -2.113282 0 -4.015625 1.636719 -3.808594 3.652344 l 1.457031 14.464844 h 85.441407 c 0.332031 0 0.652343 -0.027344 0.96875 -0.066406 l 1.457031 -14.398438 c 0.203125 -2.015625 -1.699219 -3.652344 -3.8125 -3.652344 z m 0 0" fill-opacity="0.054902"/>
                    <path d="m 22.039062 24 h 84.21875 c 4.417969 0 8 3.582031 8 8 v 12.039062 c 0 1.082032 -0.878906 1.960938 -1.960937 1.960938 h -96.296875 c -1.082031 0 -1.960938 -0.878906 -1.960938 -1.960938 v -12.039062 c 0 -4.417969 3.582032 -8 8 -8 z m 0 0" fill="url(#f)"/>
                    <path d="m 74.492188 51.800781 c -3.210938 0 -5.816407 2.605469 -5.816407 5.816407 c 0 3.210937 2.605469 5.816406 5.816407 5.816406 c 3.210937 0 5.8125 -2.605469 5.8125 -5.816406 c 0 -3.210938 -2.601563 -5.8125 -5.8125 -5.816407 z m -10.886719 14.296875 c -0.894531 0 -1.722657 0.476563 -2.167969 1.25 l -6.625 11.472656 c -0.691406 1.199219 -0.28125 2.730469 0.917969 3.425782 c 1.199219 0.691406 2.730469 0.277344 3.421875 -0.917969 l 5.902344 -10.21875 h 4.386718 l -2.972656 7.429687 c -0.320312 0.398438 -0.515625 0.882813 -0.554688 1.394532 l -0.078124 0.191406 l 0.039062 0.015625 c 0 0.007813 0 0.015625 -0.003906 0.027344 v 12.992187 h -9.234375 c -1.382813 0 -2.503907 1.121094 -2.503907 2.503906 c 0 1.386719 1.121094 2.507813 2.503907 2.507813 h 11.742187 c 1.386719 0 2.507813 -1.121094 2.507813 -2.507813 v -7.515624 l 9.757812 17.128906 c 0.683594 1.203125 2.214844 1.625 3.417969 0.9375 c 1.203125 -0.683594 1.621094 -2.214844 0.9375 -3.417969 l -12.355469 -21.6875 l 3.996094 -10 h 0.722656 l 2.636719 9.839844 c 0.292969 1.09375 1.289062 1.855469 2.421875 1.855469 h 7.734375 c 1.382812 0 2.503906 -1.121094 2.503906 -2.503907 c 0 -1.382812 -1.121094 -2.507812 -2.503906 -2.507812 h -5.8125 l -2.636719 -9.839844 c -0.292969 -1.09375 -1.285156 -1.855469 -2.417969 -1.855469 z m 0 0" fill="#ffffff"/>
                </g>
            </g>
        </g>
    </mask>
    <mask id="j">
        <g filter="url(#a)">
            <rect fill-opacity="0.8" height="184.32" width="184.32" x="-28.16" y="-28.16"/>
        </g>
    </mask>
    <linearGradient id="k" gradientTransform="matrix(0 0.37 -0.98462 0 295.38501 -30.360001)" gradientUnits="userSpaceOnUse" x1="300" x2="428" y1="235" y2="235">
        <stop offset="0" stop-color="#f9f06b"/>
        <stop offset="1" stop-color="#f5c211"/>
    </linearGradient>
    <clipPath id="l">
        <rect height="128" width="128"/>
    </clipPath>
    <clipPath id="m">
        <rect height="128" width="128"/>
    </clipPath>
    <path d="m 79.207031 1.757812 h 11.300781 c 2.109376 0 3.230469 1.777344 3.808594 3.808594 l 1.535156 5.367188 c 0.671876 2.359375 -1.976562 4.425781 -4.425781 4.425781 h -13.136719 c -2.453124 0 -5.097656 -2.066406 -4.425781 -4.425781 l 1.535157 -5.367188 c 0.578124 -2.03125 1.699218 -3.808594 3.808593 -3.808594 z m 0 0" fill="#f3f1ef"/>
    <path d="m 29.097656 12.496094 h 68.058594 c 2.109375 0 3.445312 1.726562 3.808594 3.808594 l 2.554687 14.753906 c 0.386719 2.21875 -1.8125 4.0625 -4.0625 4.0625 h -72.660156 c -2.253906 0 -4.449219 -1.84375 -4.066406 -4.0625 l 2.558593 -14.753906 c 0.359376 -2.082032 1.699219 -3.808594 3.808594 -3.808594 z m 0 0" fill="url(#b)"/>
    <path d="m 23.984375 31.878906 h 81.351563 c 2.109374 0 4.007812 1.707032 3.808593 3.808594 l -7.667969 81.125 c -0.164062 1.738281 -1.40625 3.152344 -3.152343 3.152344 h -67.328125 c -1.746094 0 -2.988282 -1.414063 -3.152344 -3.152344 l -7.667969 -81.125 c -0.199219 -2.101562 1.699219 -3.808594 3.808594 -3.808594 z m 0 0" fill="url(#c)"/>
    <path d="m 23.804688 29.878906 h 81.710937 c 2.109375 0 4.003906 1.707032 3.804687 3.808594 l -7.667968 81.125 c -0.164063 1.738281 -1.40625 3.152344 -3.152344 3.152344 h -67.679688 c -1.746093 0 -2.988281 -1.414063 -3.152343 -3.152344 l -7.667969 -81.125 c -0.199219 -2.101562 1.695312 -3.808594 3.804688 -3.808594 z m 0 0" fill="url(#d)"/>
    <path d="m 74.667969 12.496094 c 2.109375 0 3.449219 1.730468 3.808593 3.808594 l 2.558594 14.753906 c 0.382813 2.21875 -1.8125 4.0625 -4.066406 4.0625 h 22.488281 c 2.25 0 4.449219 -1.84375 4.0625 -4.0625 l -2.554687 -14.753906 c -0.359375 -2.078126 -1.699219 -3.808594 -3.808594 -3.808594 z m 0 0" fill="#faf9f8" fill-opacity="0.372549"/>
    <path d="m 61.929688 46.046875 h 34.070312 v 61.378906 c 0 2.527344 -2.046875 4.574219 -4.574219 4.574219 h -34.25 c 2.832031 0 4.753907 -1.875 4.753907 -4.476562 z m 0 0" fill="url(#e)"/>
    <path d="m 23.808594 29.882812 c -2.113282 0 -4.015625 1.636719 -3.808594 3.652344 l 1.457031 14.464844 h 85.441407 c 0.332031 0 0.652343 -0.027344 0.96875 -0.066406 l 1.457031 -14.398438 c 0.203125 -2.015625 -1.699219 -3.652344 -3.8125 -3.652344 z m 0 0" fill-opacity="0.054902"/>
    <path d="m 22.039062 24 h 84.21875 c 4.417969 0 8 3.582031 8 8 v 12.039062 c 0 1.082032 -0.878906 1.960938 -1.960937 1.960938 h -96.296875 c -1.082031 0 -1.960938 -0.878906 -1.960938 -1.960938 v -12.039062 c 0 -4.417969 3.582032 -8 8 -8 z m 0 0" fill="url(#f)"/>
    <path d="m 74.492188 51.800781 c -3.210938 0 -5.816407 2.605469 -5.816407 5.816407 c 0 3.210937 2.605469 5.816406 5.816407 5.816406 c 3.210937 0 5.8125 -2.605469 5.8125 -5.816406 c 0 -3.210938 -2.601563 -5.8125 -5.8125 -5.816407 z m -10.886719 14.296875 c -0.894531 0 -1.722657 0.476563 -2.167969 1.25 l -6.625 11.472656 c -0.691406 1.199219 -0.28125 2.730469 0.917969 3.425782 c 1.199219 0.691406 2.730469 0.277344 3.421875 -0.917969 l 5.902344 -10.21875 h 4.386718 l -2.972656 7.429687 c -0.320312 0.398438 -0.515625 0.882813 -0.554688 1.394532 l -0.078124 0.191406 l 0.039062 0.015625 c 0 0.007813 0 0.015625 -0.003906 0.027344 v 12.992187 h -9.234375 c -1.382813 0 -2.503907 1.121094 -2.503907 2.503906 c 0 1.386719 1.121094 2.507813 2.503907 2.507813 h 11.742187 c 1.386719 0 2.507813 -1.121094 2.507813 -2.507813 v -7.515624 l 9.757812 17.128906 c 0.683594 1.203125 2.214844 1.625 3.417969 0.9375 c 1.203125 -0.683594 1.621094 -2.214844 0.9375 -3.417969 l -12.355469 -21.6875 l 3.996094 -10 h 0.722656 l 2.636719 9.839844 c 0.292969 1.09375 1.289062 1.855469 2.421875 1.855469 h 7.734375 c 1.382812 0 2.503906 -1.121094 2.503906 -2.503907 c 0 -1.382812 -1.121094 -2.507812 -2.503906 -2.507812 h -5.8125 l -2.636719 -9.839844 c -0.292969 -1.09375 -1.285156 -1.855469 -2.417969 -1.855469 z m 0 0" fill="#ffffff"/>
    <g mask="url(#i)">
        <g clip-path="url(#m)">
            <g mask="url(#j)">
                <g clip-path="url(#l)">
                    <path d="m 128 80.640625 v 47.359375 h -128 v -47.359375 z m 0 0" fill="url(#k)"/>
                    <path d="m 13.308594 80.640625 l 47.355468 47.359375 h 21.214844 l -47.359375 -47.359375 z m 42.421875 0 l 47.363281 47.359375 h 21.214844 l -47.363282 -47.359375 z m 42.429687 0 l 29.839844 29.839844 v -21.210938 l -8.628906 -8.628906 z m -98.160156 7.90625 v 21.214844 l 18.238281 18.238281 h 21.214844 z m 0 0"/>
                </g>
            </g>
        </g>
    </g>
</svg>
